# xmcd
#
# Track frame offsets:
# 150
# 16007
# 28469
# 47472
# 67600
# 79927
# 94934
# 113943
# 128737
# 142055
#
# Disc length: 2116 seconds
#
#
# Revision: 0
# Processed by: cddbd v1.5.2PL0 Copyright (c) Steve Scherf et al.
# Submitted via: FreeRIP 2.931 
#
DISCID=7f08420a
DTITLE=Jessie Farrell - Nothing Fancy
DYEAR=2007
DGENRE=Country
TTITLE0=Let's Talk About Love
TTITLE1=I Guess
TTITLE2=Fell Right Into You
TTITLE3=Best of Me
TTITLE4=Lucky
TTITLE5=Sorry For You
TTITLE6=Falling Asleep
TTITLE7=Prettiest Things
TTITLE8=I am a Rock
TTITLE9=Coming Home
EXTD=
EXTT0=
EXTT1=
EXTT2=
EXTT3=
EXTT4=
EXTT5=
EXTT6=
EXTT7=
EXTT8=
EXTT9=
PLAYORDER=
